<?xml version="1.0" standalone="no"?>
<!DOCTYPE svg PUBLIC "-//W3C//DTD SVG 20010904//EN"
 "http://www.w3.org/TR/2001/REC-SVG-20010904/DTD/svg10.dtd">
<svg version="1.0" xmlns="http://www.w3.org/2000/svg"
 width="512.000000pt" height="512.000000pt" viewBox="0 0 512.000000 512.000000"
 preserveAspectRatio="xMidYMid meet">
<metadata>
Created by potrace 1.14, written by Peter Selinger 2001-2017
</metadata>
<g transform="translate(0.000000,512.000000) scale(0.100000,-0.100000)"
fill="#000000" stroke="none">
<path d="M1952 5098 c-45 -22 -1940 -1913 -1948 -1944 -11 -43 16 -81 150
-211 163 -158 226 -213 378 -330 406 -314 799 -508 1383 -684 41 -12 354 -90
385 -95 14 -3 62 -14 108 -24 46 -11 92 -20 102 -20 10 0 21 -8 24 -18 10 -31
243 -255 291 -279 63 -33 150 -40 215 -19 28 9 54 14 59 12 4 -3 73 -94 152
-203 79 -109 147 -202 152 -208 4 -5 43 -58 85 -117 278 -385 560 -765 591
-797 39 -41 139 -103 186 -116 182 -50 323 -37 495 48 157 77 284 231 335 407
39 135 26 309 -30 421 -46 92 -91 139 -225 239 -18 14 -56 42 -82 63 -68 53
-99 63 -139 43 -35 -17 -32 -19 -139 63 -39 29 -45 39 -46 72 0 20 -6 45 -14
54 -12 14 -239 182 -361 266 -20 14 -68 48 -106 76 -37 28 -125 91 -195 141
l-126 92 17 47 c11 30 17 69 15 103 -5 94 -33 142 -162 273 -64 65 -126 123
-137 127 -20 7 -47 107 -120 432 -9 41 -57 215 -65 238 -5 14 -23 71 -40 127
-33 107 -51 132 -96 137 -25 3 -31 12 -65 97 -38 93 -38 94 -19 114 31 33 24
68 -38 193 -177 354 -380 646 -647 930 -82 88 -231 234 -247 243 -28 15 -54
17 -76 7z m2595 -4328 c70 -42 89 -126 43 -193 -73 -107 -250 -52 -250 78 0
101 120 168 207 115z"/>
</g>
</svg>
